HIERARCHY
ROOT joint_Root
{
	OFFSET 0.0 0.0 0.0
	CHANNELS 6 Xposition Yposition Zposition Zrotation Xrotation Yrotation 
	JOINT Hips
	{
		OFFSET 4.5925 91.4895 -427.239
		CHANNELS 6 Xposition Yposition Zposition Zrotation Xrotation Yrotation 
		JOINT Spine
		{
			OFFSET 15.7357 0.0 0.0
			CHANNELS 6 Xposition Yposition Zposition Zrotation Xrotation Yrotation 
			JOINT Chest
			{
				OFFSET 8.98455 -0.406207 0.0
				CHANNELS 6 Xposition Yposition Zposition Zrotation Xrotation Yrotation 
				JOINT Neck
				{
					OFFSET 16.3773 0.0 0.0
					CHANNELS 6 Xposition Yposition Zposition Zrotation Xrotation Yrotation 
					JOINT Head
					{
						OFFSET 6.45672 0.0 0.0
						CHANNELS 6 Xposition Yposition Zposition Zrotation Xrotation Yrotation 
						End Site
						{
							OFFSET 0.0 0.0 0.0
						}
					}
				}
				JOINT Shoulder_L
				{
					OFFSET 12.9942 -0.242716 4.98039
					CHANNELS 6 Xposition Yposition Zposition Zrotation Xrotation Yrotation 
					JOINT UpperArm_L
					{
						OFFSET 5.34809 0.0 0.0
						CHANNELS 6 Xposition Yposition Zposition Zrotation Xrotation Yrotation 
						JOINT LowerArm_L
						{
							OFFSET 24.3286 1.87007e-05 0.0
							CHANNELS 6 Xposition Yposition Zposition Zrotation Xrotation Yrotation 
							JOINT Hand_L
							{
								OFFSET 22.2916 0.0 0.0
								CHANNELS 6 Xposition Yposition Zposition Zrotation Xrotation Yrotation 
								End Site
								{
									OFFSET 0.0 0.0 0.0
								}
							}
						}
					}
				}
				JOINT Shoulder_R
				{
					OFFSET 12.9945 -0.242716 -4.98039
					CHANNELS 6 Xposition Yposition Zposition Zrotation Xrotation Yrotation 
					JOINT UpperArm_R
					{
						OFFSET -5.34813 0.0 0.0
						CHANNELS 6 Xposition Yposition Zposition Zrotation Xrotation Yrotation 
						JOINT LowerArm_R
						{
							OFFSET -24.3289 0.000322201 0.0
							CHANNELS 6 Xposition Yposition Zposition Zrotation Xrotation Yrotation 
							JOINT Hand_R
							{
								OFFSET -22.2915 -0.000108084 0.0
								CHANNELS 6 Xposition Yposition Zposition Zrotation Xrotation Yrotation 
								End Site
								{
									OFFSET 0.0 0.0 0.0
								}
							}
						}
					}
				}
			}
		}
		JOINT UpperLeg_L
		{
			OFFSET -2.19248 -6.46944 0.0
			CHANNELS 6 Xposition Yposition Zposition Zrotation Xrotation Yrotation 
			JOINT LowerLeg_L
			{
				OFFSET 39.0811 0.0 -1.23785e-05
				CHANNELS 6 Xposition Yposition Zposition Zrotation Xrotation Yrotation 
				JOINT Foot_L
				{
					OFFSET 40.9854 0.0 -1.26872e-05
					CHANNELS 6 Xposition Yposition Zposition Zrotation Xrotation Yrotation 
					JOINT Toes_L
					{
						OFFSET 11.7543 0.0 0.0
						CHANNELS 6 Xposition Yposition Zposition Zrotation Xrotation Yrotation 
						End Site
						{
							OFFSET 0.0 0.0 0.0
						}
					}
				}
			}
		}
		JOINT UpperLeg_R
		{
			OFFSET -2.19251 6.46944 0.0
			CHANNELS 6 Xposition Yposition Zposition Zrotation Xrotation Yrotation 
			JOINT LowerLeg_R
			{
				OFFSET -39.0811 -0.00228153 -0.0401928
				CHANNELS 6 Xposition Yposition Zposition Zrotation Xrotation Yrotation 
				JOINT Foot_R
				{
					OFFSET -40.9854 0.0 0.0
					CHANNELS 6 Xposition Yposition Zposition Zrotation Xrotation Yrotation 
					JOINT Toes_R
					{
						OFFSET -11.7543 0.0 0.0
						CHANNELS 6 Xposition Yposition Zposition Zrotation Xrotation Yrotation 
						End Site
						{
							OFFSET 0.0 0.0 0.0
						}
					}
				}
			}
		}
	}
}
MOTION
Frames:	4
Frame Time:	0.0333333
0.000000 0.000000 0.000000 0.000000 0.000000 -0.000000 -1.210330 92.085000 0.399217 88.834400 9.055520 4.336120 15.735700 0.000005 -0.000001 102.645000 86.815400 -105.473000 8.984550 -0.406207 -0.000000 -1.505200 1.622560 -5.632940 16.377300 -0.000001 -0.000001 4.452680 -6.233900 4.822920 6.456720 -0.000001 -0.000000 -0.430288 -5.154820 0.618894 12.994200 -0.242716 4.980390 -92.171600 5.419580 -68.125200 5.348090 -0.000007 -0.000001 -63.268900 12.519000 1.042460 24.328600 0.000019 0.000005 8.553650 24.065900 -20.246000 22.291600 -0.000001 0.000005 14.171100 5.108810 4.910710 12.994500 -0.242716 -4.980390 93.417000 -8.944110 -68.991200 -5.348130 -0.000001 -0.000004 -34.120200 -62.389000 -71.119600 -24.328900 0.000322 -0.000009 -2.188590 -1.233740 -60.595000 -22.291500 -0.000108 -0.000004 19.880200 5.483920 -5.899710 -2.192480 -6.469440 -0.000000 -174.358000 -9.902600 -3.409060 39.081100 -0.000007 -0.000012 -0.055586 0.126887 23.657000 40.985400 -0.000006 -0.000013 1.571830 15.820800 -66.626400 11.754300 -0.000000 0.000003 -0.000085 -0.000899 -16.612200 -2.192510 6.469440 -0.000001 175.845000 28.225900 -177.308000 -39.081100 -0.002282 -0.040193 0.002662 0.001794 20.176500 -40.985400 0.000008 0.000006 6.313400 14.578100 -68.916400 -11.754300 -0.000006 -0.000006 -0.001625 -0.023920 -17.545800
0.000000 0.000000 0.000000 0.000000 0.000000 -0.000000 -1.061980 92.134600 0.149951 88.874100 7.864950 4.274660 15.735700 0.000005 -0.000001 100.624000 86.740100 -103.289000 8.984550 -0.406207 -0.000000 -1.319650 1.412930 -5.313670 16.377300 -0.000001 -0.000001 4.085070 -5.695060 4.400860 6.456720 -0.000001 -0.000000 -0.538971 -4.718260 0.984844 12.994200 -0.242716 4.980390 -92.288600 5.696710 -68.069500 5.348090 -0.000007 -0.000001 -63.850500 15.181200 0.368165 24.328600 0.000019 0.000005 8.543190 24.695800 -19.776200 22.291600 -0.000001 0.000005 13.621600 5.105350 4.990990 12.994500 -0.242716 -4.980390 92.712400 -7.416110 -69.845600 -5.348130 -0.000001 -0.000004 -31.586100 -58.956300 -64.162700 -24.328900 0.000322 -0.000009 -2.486330 -0.935014 -69.386100 -22.291500 -0.000108 -0.000004 20.616300 5.480260 -5.759560 -2.192480 -6.469440 -0.000000 -174.512000 -10.728400 -3.299910 39.081100 -0.000007 -0.000012 -0.052638 0.121630 23.401800 40.985400 -0.000006 -0.000013 1.585800 15.386000 -66.436700 11.754300 -0.000000 0.000003 -0.000071 -0.000766 -16.607100 -2.192510 6.469440 -0.000001 175.713000 27.864100 -177.609000 -39.081100 -0.002282 -0.040193 -0.010605 0.038119 20.069000 -40.985400 0.000008 0.000006 5.938190 15.515700 -68.542000 -11.754300 -0.000006 -0.000006 -0.001711 -0.025043 -17.591400
0.000000 0.000000 0.000000 0.000000 0.000000 -0.000000 -0.926668 92.165900 -0.080827 88.909500 6.599030 4.436720 15.735700 0.000005 -0.000001 97.264700 86.619400 -99.712600 8.984550 -0.406207 -0.000000 -1.032100 1.042630 -4.884430 16.377300 -0.000001 -0.000001 3.758790 -5.038240 3.786700 6.456720 -0.000001 -0.000000 -0.649569 -4.068150 1.103210 12.994200 -0.242716 4.980390 -92.420500 5.998010 -67.975300 5.348090 -0.000007 -0.000001 -64.604900 17.120200 -0.071523 24.328600 0.000019 0.000005 8.724620 25.055400 -19.918900 22.291600 -0.000001 0.000005 13.228000 5.112080 4.835320 12.994500 -0.242716 -4.980390 91.977700 -5.777190 -71.068200 -5.348130 -0.000001 -0.000004 -30.285300 -54.061700 -57.666500 -24.328900 0.000322 -0.000009 -2.712310 -0.559737 -78.326500 -22.291500 -0.000108 -0.000004 21.334600 5.481360 -5.799300 -2.192480 -6.469440 -0.000000 -174.584000 -11.472300 -2.978200 39.081100 -0.000007 -0.000012 -0.053622 0.124947 23.227100 40.985400 -0.000006 -0.000013 1.583130 14.950700 -66.318600 11.754300 -0.000000 0.000003 -0.000077 -0.000822 -16.609300 -2.192510 6.469440 -0.000001 175.443000 27.489800 -177.701000 -39.081100 -0.002282 -0.040193 -0.028400 0.086845 20.065200 -40.985400 0.000008 0.000006 5.442930 16.585400 -68.153300 -11.754300 -0.000006 -0.000006 -0.001541 -0.022812 -17.500700
0.000000 0.000000 0.000000 0.000000 0.000000 -0.000000 -0.816626 92.191600 -0.316623 88.932500 5.235260 4.619480 15.735700 0.000005 -0.000001 93.455300 86.462400 -95.651400 8.984550 -0.406207 -0.000000 -0.688635 0.588262 -4.386560 16.377300 -0.000001 -0.000001 3.447710 -4.240550 3.123020 6.456720 -0.000001 -0.000000 -0.846674 -3.344280 1.119860 12.994200 -0.242716 4.980390 -92.549000 6.317020 -67.971800 5.348090 -0.000007 -0.000001 -65.463800 18.543900 -0.314594 24.328600 0.000019 0.000005 8.865480 24.430300 -20.663400 22.291600 -0.000001 0.000005 13.006600 5.123770 4.562840 12.994500 -0.242716 -4.980390 91.149300 -3.784210 -73.099100 -5.348130 -0.000001 -0.000004 -28.528900 -47.939400 -50.208200 -24.328900 0.000322 -0.000009 -3.704590 -0.222760 -86.545800 -22.291500 -0.000108 -0.000004 22.515600 5.490500 -6.152290 -2.192480 -6.469440 -0.000000 -174.653000 -12.140300 -2.661730 39.081100 -0.000007 -0.000012 -0.054246 0.127193 23.097600 40.985400 -0.000006 -0.000013 1.515460 14.222900 -66.206700 11.754300 -0.000000 0.000003 -0.000074 -0.000791 -16.608100 -2.192510 6.469440 -0.000001 175.298000 26.724500 -177.853000 -39.081100 -0.002282 -0.040193 -0.044141 0.129766 20.090100 -40.985400 0.000008 0.000006 4.958990 17.397900 -67.749900 -11.754300 -0.000006 -0.000006 -0.001584 -0.023382 -17.523900
